<svg xmlns="http://www.w3.org/2000/svg" viewBox="0 0 1200 800" width="1200" height="800">
  <defs>
    <radialGradient id="heroGrad" cx="50%" cy="50%" r="70%">
      <stop offset="0%" style="stop-color:#06B6D4;stop-opacity:0.3"/>
      <stop offset="100%" style="stop-color:#09090B;stop-opacity:0"/>
    </radialGradient>
    <linearGradient id="sunset" x1="0%" y1="100%" x2="0%" y2="0%">
      <stop offset="0%" style="stop-color:#F97316"/>
      <stop offset="40%" style="stop-color:#EC4899"/>
      <stop offset="100%" style="stop-color:#06B6D4"/>
    </linearGradient>
  </defs>
  <rect width="1200" height="800" fill="#09090B"/>
  <rect width="1200" height="800" fill="url(#heroGrad)"/>
  <ellipse cx="600" cy="600" rx="400" ry="200" fill="url(#sunset)" opacity="0.6"/>
  <circle cx="800" cy="200" r="80" fill="#FFFFFF" opacity="0.1"/>
  <circle cx="200" cy="300" r="40" fill="#06B6D4" opacity="0.2"/>
  <circle cx="1000" cy="400" r="60" fill="#22D3EE" opacity="0.15"/>
  <circle cx="300" cy="150" r="30" fill="#EC4899" opacity="0.1"/>
  <path d="M0 500 Q300 450 600 480 Q900 510 1200 460 L1200 800 L0 800 Z" fill="#18181B"/>
  <path d="M0 520 Q300 490 600 510 Q900 530 1200 480 L1200 800 L0 800 Z" fill="#06B6D4" opacity="0.1"/>
  <g fill="#06B6D4" opacity="0.6">
    <circle cx="150" cy="350" r="3"/>
    <circle cx="250" cy="280" r="2"/>
    <circle cx="350" cy="320" r="4"/>
    <circle cx="450" cy="290" r="2"/>
    <circle cx="550" cy="350" r="3"/>
    <circle cx="650" cy="280" r="2"/>
    <circle cx="750" cy="320" r="4"/>
    <circle cx="850" cy="290" r="2"/>
    <circle cx="950" cy="350" r="3"/>
    <circle cx="1050" cy="280" r="2"/>
  </g>
</svg>