<svg xmlns="http://www.w3.org/2000/svg" viewBox="0 0 512 512" width="512" height="512">
  <defs>
    <linearGradient id="bg" x1="0%" y1="0%" x2="100%" y2="100%">
      <stop offset="0%" style="stop-color:#09090B"/>
      <stop offset="100%" style="stop-color:#18181B"/>
    </linearGradient>
    <linearGradient id="logoGrad" x1="0%" y1="0%" x2="100%" y2="100%">
      <stop offset="0%" style="stop-color:#06B6D4"/>
      <stop offset="100%" style="stop-color:#22D3EE"/>
    </linearGradient>
  </defs>
  <rect width="512" height="512" rx="64" fill="url(#bg)"/>
  <g transform="translate(128, 140)">
    <path d="M128 0 C60 0 0 60 0 128 C0 196 60 256 128 256 C196 256 256 196 256 128 C256 60 196 0 128 0 Z M128 32 C178 32 220 74 220 128 C220 182 178 224 128 224 C78 224 36 182 36 128 C36 74 78 32 128 32 Z" fill="url(#logoGrad)"/>
    <path d="M80 96 L128 48 L176 96 L176 176 C176 196 160 212 140 212 L68 212 C48 212 32 196 32 176 L32 112 Z" fill="url(#logoGrad)" opacity="0.8"/>
    <circle cx="128" cy="148" r="24" fill="#06B6D4"/>
    <path d="M108 188 L128 168 L148 188" fill="none" stroke="#22D3EE" stroke-width="8" stroke-linecap="round"/>
  </g>
  <text x="256" y="420" font-family="Arial, sans-serif" font-size="36" font-weight="bold" fill="#FFFFFF" text-anchor="middle">ALEBRIJE</text>
</svg>